<?xml version="1.0" encoding="UTF-8"?>
<svg version="1.1" xmlns="http://www.w3.org/2000/svg" width="48" height="48">
<path d="M0 0 C15.84 0 31.68 0 48 0 C48 15.84 48 31.68 48 48 C32.16 48 16.32 48 0 48 C0 32.16 0 16.32 0 0 Z " fill="#FEFAFA" transform="translate(0,0)"/>
<path d="M0 0 C1.69141656 0.08963062 3.37959602 0.24577676 5.0625 0.4375 C6.44115234 0.59025391 6.44115234 0.59025391 7.84765625 0.74609375 C8.55792969 0.82988281 9.26820312 0.91367188 10 1 C10.33 1.99 10.66 2.98 11 4 C8.04335481 5.4783226 5.25770263 5.06032783 2 5 C2 6.65 2 8.3 2 10 C3.27875 9.979375 4.5575 9.95875 5.875 9.9375 C9.75 9.875 9.75 9.875 12 11 C12.433125 9.6078125 12.433125 9.6078125 12.875 8.1875 C14 5 14 5 16 2 C17.32 2.33 18.64 2.66 20 3 C20.33 7.95 20.66 12.9 21 18 C20.01 17.67 19.02 17.34 18 17 C17.3125 14.9375 17.3125 14.9375 17 13 C16.01 13 15.02 13 14 13 C13.67 14.65 13.34 16.3 13 18 C12.01 17.67 11.02 17.34 10 17 C10 15.68 10 14.36 10 13 C7.36 13.33 4.72 13.66 2 14 C2 15.98 2 17.96 2 20 C1.01 20 0.02 20 -1 20 C-1.02888514 16.85418577 -1.04675923 13.70840531 -1.0625 10.5625 C-1.07087891 9.66466797 -1.07925781 8.76683594 -1.08789062 7.84179688 C-1.09111328 6.98779297 -1.09433594 6.13378906 -1.09765625 5.25390625 C-1.10551147 4.06776733 -1.10551147 4.06776733 -1.11352539 2.85766602 C-1 1 -1 1 0 0 Z " fill="#E82A30" transform="translate(6,12)"/>
<path d="M0 0 C0.66 0 1.32 0 2 0 C2 3.3 2 6.6 2 10 C2.99 10 3.98 10 5 10 C4.9071875 8.824375 4.9071875 8.824375 4.8125 7.625 C4.874375 6.75875 4.93625 5.8925 5 5 C5.99 4.34 6.98 3.68 8 3 C9 4 9 4 9.09765625 7.81640625 C9.09098089 9.39846682 9.07901875 10.98051159 9.0625 12.5625 C9.05798828 13.36880859 9.05347656 14.17511719 9.04882812 15.00585938 C9.03700518 17.00393756 9.01906914 19.00197783 9 21 C8.01 21 7.02 21 6 21 C4.64560332 18.29120665 4.93498549 15.99066732 5 13 C4.01 13 3.02 13 2 13 C2 15.64 2 18.28 2 21 C1.34 21 0.68 21 0 21 C-1.13945516 18.72108967 -1.12894214 17.43217896 -1.1328125 14.90234375 C-1.13410156 14.10119141 -1.13539062 13.30003906 -1.13671875 12.47460938 C-1.13285156 11.63736328 -1.12898438 10.80011719 -1.125 9.9375 C-1.12886719 9.09638672 -1.13273437 8.25527344 -1.13671875 7.38867188 C-1.12662682 1.12662682 -1.12662682 1.12662682 0 0 Z " fill="#E8252B" transform="translate(29,12)"/>
<path d="M0 0 C0.99 0 1.98 0 3 0 C3.70088264 5.08139915 3.70088264 5.08139915 3 8 C0.66323826 10.55016464 -1.94880791 12.38250058 -5 14 C-5.66 14 -6.32 14 -7 14 C-7.7109375 11.765625 -7.7109375 11.765625 -8 9 C-6.6015625 6.796875 -6.6015625 6.796875 -4.625 4.75 C-3.97789063 4.06421875 -3.33078125 3.3784375 -2.6640625 2.671875 C-1.77682379 1.78047085 -0.88932387 0.88932387 0 0 Z " fill="#E8252B" transform="translate(42,31)"/>
<path d="M0 0 C0.66 0.33 1.32 0.66 2 1 C2 2.32 2 3.64 2 5 C-0.31 6.32 -2.62 7.64 -5 9 C-3.50163895 5.88801935 -1.80066242 2.9465385 0 0 Z " fill="#EA383D" transform="translate(43,34)"/>
</svg>
